<svg id="Capa_1" enable-background="new 0 0 512.049 512.049" height="512" viewBox="0 0 512.049 512.049" width="512" style="fill: #f44336;" xmlns="http://www.w3.org/2000/svg"><g><path d="m478.182 66.264h-186.871v-47.029c0-10.606-8.629-19.235-19.236-19.235h-32.101c-10.606 0-19.235 8.629-19.235 19.235v47.028h-186.872c-18.565 0-33.669 15.104-33.669 33.67v182.545c0 18.565 15.104 33.67 33.669 33.67h51.364c4.142 0 7.5-3.357 7.5-7.5s-3.358-7.5-7.5-7.5h-51.364c-10.294 0-18.669-8.375-18.669-18.67v-182.544c0-10.295 8.375-18.67 18.669-18.67h444.315c10.295 0 18.67 8.375 18.67 18.67v182.545c0 10.295-8.375 18.67-18.67 18.67h-360.989c-4.142 0-7.5 3.357-7.5 7.5s3.358 7.5 7.5 7.5h66.676v26.028c0 11.224 9.131 20.354 20.354 20.354h.824v20.067c0 8.799 6.98 15.979 15.691 16.344v105.606c0 4.143 3.358 7.5 7.5 7.5s7.5-3.357 7.5-7.5v-105.57h40.572v39.587c0 4.143 3.357 7.5 7.5 7.5s7.5-3.357 7.5-7.5v-39.622c8.711-.365 15.69-7.545 15.69-16.344v-20.067h.824c11.223 0 20.354-9.131 20.354-20.354v-26.028h150.003c18.565 0 33.67-15.104 33.67-33.67v-182.546c.001-18.566-15.104-33.67-33.669-33.67zm-242.443 0v-47.029c0-2.335 1.9-4.235 4.235-4.235h32.101c2.335 0 4.235 1.9 4.235 4.235v47.028h-40.571zm56.262 316.335c0 .761-.618 1.379-1.379 1.379h-69.195c-.76 0-1.379-.618-1.379-1.379v-20.067h71.953zm21.178-40.422c0 2.952-2.401 5.354-5.354 5.354h-103.601c-2.953 0-5.354-2.402-5.354-5.354v-26.028h114.309z"/><path d="m383.703 96.264h-346.006c-4.142 0-7.5 3.357-7.5 7.5v174.884c0 4.143 3.358 7.5 7.5 7.5h436.654c4.143 0 7.5-3.357 7.5-7.5v-174.884c0-4.143-3.357-7.5-7.5-7.5h-58.686c-4.143 0-7.5 3.357-7.5 7.5s3.357 7.5 7.5 7.5h51.186v159.884h-421.654v-159.884h338.506c4.143 0 7.5-3.357 7.5-7.5s-3.357-7.5-7.5-7.5z"/><path d="m172.108 160.682c4.142 0 7.5-3.357 7.5-7.5s-3.358-7.5-7.5-7.5h-35.277c-6.609 0-11.985 5.377-11.985 11.985v29.87c0 6.608 5.376 11.985 11.985 11.985h27.777v24.208h-32.263c-4.142 0-7.5 3.357-7.5 7.5s3.358 7.5 7.5 7.5h35.277c6.609 0 11.985-5.377 11.985-11.985v-30.237c0-6.608-5.376-11.985-11.985-11.985h-27.777v-23.841z"/><path d="m253.893 160.682c4.142 0 7.5-3.357 7.5-7.5s-3.357-7.5-7.5-7.5h-39.726c-6.57 0-11.915 5.345-11.915 11.914v69.22c0 6.57 5.345 11.915 11.915 11.915h39.726c4.142 0 7.5-3.357 7.5-7.5s-3.357-7.5-7.5-7.5h-36.641v-24.024h22.548c4.142 0 7.5-3.357 7.5-7.5s-3.358-7.5-7.5-7.5h-22.547v-24.024h36.64z"/><path d="m289.354 145.682c-4.143 0-7.5 3.357-7.5 7.5v78.049c0 4.143 3.357 7.5 7.5 7.5h29.854c4.143 0 7.5-3.357 7.5-7.5s-3.357-7.5-7.5-7.5h-22.354v-70.549c0-4.143-3.358-7.5-7.5-7.5z"/><path d="m353.85 145.682c-4.143 0-7.5 3.357-7.5 7.5v78.049c0 4.143 3.357 7.5 7.5 7.5h29.854c4.143 0 7.5-3.357 7.5-7.5s-3.357-7.5-7.5-7.5h-22.354v-70.549c0-4.143-3.358-7.5-7.5-7.5z"/><path d="m283.811 463.027c-4.143 0-7.5 3.357-7.5 7.5v34.021c0 4.143 3.357 7.5 7.5 7.5s7.5-3.357 7.5-7.5v-34.021c0-4.142-3.358-7.5-7.5-7.5z"/></g></svg>