<?xml version="1.0" encoding="iso-8859-1"?>
<!-- Generator: Adobe Illustrator 19.0.0, SVG Export Plug-In . SVG Version: 6.00 Build 0)  -->
<svg version="1.1" id="Capa_1" xmlns="http://www.w3.org/2000/svg" xmlns:xlink="http://www.w3.org/1999/xlink" x="0px" y="0px"
	 viewBox="0 0 472.615 472.615" style="enable-background:new 0 0 472.615 472.615; fill: #2ecc71;" xml:space="preserve">
<g>
	<g>
		<path d="M344.615,98.462H128c-70.892,0-128,57.108-128,128v19.692c0,70.892,57.108,128,128,128h216.615
			c70.892,0,128-57.108,128-128v-19.692C472.615,155.569,415.508,98.462,344.615,98.462z M452.923,246.154
			c0,60.062-48.246,108.308-108.308,108.308H128c-60.062,0-108.308-48.246-108.308-108.308v-19.692
			c0-60.062,48.246-108.308,108.308-108.308h216.615c60.062,0,108.308,48.246,108.308,108.308V246.154z"/>
	</g>
</g>
<g>
	<g>
		<path d="M163.447,241.231c-2.954-3.938-8.862-6.892-14.769-7.877c1.969-0.985,2.954-1.969,3.938-1.969
			c0.985,0,1.969-0.985,3.938-1.969c4.923-2.954,7.877-8.862,7.877-16.739c0-5.908-1.969-11.815-6.892-16.739
			c-1.969-2.954-5.908-4.923-10.831-6.892c-4.923-0.985-10.831-1.969-17.723-1.969H88.615v97.477h45.292
			c13.785,0,23.631-2.954,28.554-9.846c4.923-4.923,6.892-10.831,6.892-17.723C169.354,250.093,167.385,245.17,163.447,241.231z
			 M105.354,202.831H128c5.908,0,10.831,0.984,13.785,2.954s4.923,4.923,4.923,9.846c0,7.877-5.908,11.816-18.708,11.816h-21.662
			h-0.984V202.831z M148.677,266.831c-3.938,1.969-8.862,2.954-14.769,2.954h-26.585V243.2h24.615
			c14.769,0,21.662,3.938,21.662,12.8C153.6,260.923,151.63,264.862,148.677,266.831z"/>
	</g>
</g>
<g>
	<g>
		<path d="M259.938,187.077v53.169c0,9.846-1.969,16.739-6.892,21.662c-3.938,4.923-10.831,7.877-18.708,7.877
			c-7.877,0-13.785-2.954-18.708-7.877c-4.923-4.923-6.892-11.815-6.893-20.677v-54.154h-17.723v55.139
			c0,13.785,3.939,24.615,11.816,32.492c7.877,7.877,18.708,11.816,31.508,11.816c12.8,0,23.631-3.939,31.508-11.816
			c7.877-7.877,11.815-18.708,11.815-32.492v-55.139H259.938z"/>
	</g>
</g>
<g>
	<g>
		<polygon points="384,187.077 365.292,187.077 336.738,231.385 308.185,187.077 289.477,187.077 327.877,246.154 327.877,284.554 
			345.6,284.554 345.6,246.154 		"/>
	</g>
</g>
<g>
</g>
<g>
</g>
<g>
</g>
<g>
</g>
<g>
</g>
<g>
</g>
<g>
</g>
<g>
</g>
<g>
</g>
<g>
</g>
<g>
</g>
<g>
</g>
<g>
</g>
<g>
</g>
<g>
</g>
</svg>
